<?xml version="1.0" encoding="UTF-8"?>
<svg width="980px" height="120px" viewBox="0 0 980 120" version="1.1" xmlns="http://www.w3.org/2000/svg" xmlns:xlink="http://www.w3.org/1999/xlink">
    <!-- Generator: Sketch 43.2 (39069) - http://www.bohemiancoding.com/sketch -->
    <title>docs</title>
    <desc>Created with Sketch.</desc>
    <defs></defs>
    <g id="Page-1" stroke="none" stroke-width="1" fill="none" fill-rule="evenodd">
        <g id="docs" fill="#4A4A4A">
            <path d="M305,43 L313.448,43 L322.904,69.832 L323,69.832 L332.216,43 L340.568,43 L340.568,77.272 L334.856,77.272 L334.856,50.824 L334.76,50.824 L325.256,77.272 L320.312,77.272 L310.808,50.824 L310.712,50.824 L310.712,77.272 L305,77.272 L305,43 Z M347.144,43 L352.616,43 L352.616,48.184 L347.144,48.184 L347.144,43 Z M347.144,52.456 L352.616,52.456 L352.616,77.272 L347.144,77.272 L347.144,52.456 Z M375.32,60.76 C375.095999,59.2239923 374.480005,58.0640039 373.472,57.28 C372.463995,56.4959961 371.192008,56.104 369.656,56.104 C368.951996,56.104 368.200004,56.2239988 367.4,56.464 C366.599996,56.7040012 365.864003,57.1519967 365.192,57.808 C364.519997,58.4640033 363.960002,59.3759942 363.512,60.544 C363.063998,61.7120058 362.84,63.2399906 362.84,65.128 C362.84,66.1520051 362.959999,67.1759949 363.2,68.2 C363.440001,69.2240051 363.823997,70.135996 364.352,70.936 C364.880003,71.736004 365.559996,72.3839975 366.392,72.88 C367.224004,73.3760025 368.231994,73.624 369.416,73.624 C371.016008,73.624 372.335995,73.128005 373.376,72.136 C374.416005,71.143995 375.063999,69.752009 375.32,67.96 L380.792,67.96 C380.279997,71.1920162 379.05601,73.6639914 377.12,75.376 C375.18399,77.0880086 372.616016,77.944 369.416,77.944 C367.46399,77.944 365.744007,77.6160033 364.256,76.96 C362.767993,76.3039967 361.512005,75.4080057 360.488,74.272 C359.463995,73.1359943 358.688003,71.7840078 358.16,70.216 C357.631997,68.6479922 357.368,66.9520091 357.368,65.128 C357.368,63.2719907 357.623997,61.5280082 358.136,59.896 C358.648003,58.2639918 359.415995,56.848006 360.44,55.648 C361.464005,54.447994 362.735992,53.5040034 364.256,52.816 C365.776008,52.1279966 367.55999,51.784 369.608,51.784 C371.048007,51.784 372.415994,51.9679982 373.712,52.336 C375.008006,52.7040018 376.159995,53.2559963 377.168,53.992 C378.176005,54.7280037 378.999997,55.6559944 379.64,56.776 C380.280003,57.8960056 380.663999,59.2239923 380.792,60.76 L375.32,60.76 Z M385.256,52.456 L390.392,52.456 L390.392,57.256 L390.488,57.256 C390.648001,56.5839966 390.959998,55.9280032 391.424,55.288 C391.888002,54.6479968 392.447997,54.0640026 393.104,53.536 C393.760003,53.0079974 394.487996,52.5840016 395.288,52.264 C396.088004,51.9439984 396.903996,51.784 397.736,51.784 C398.376003,51.784 398.815999,51.7999998 399.056,51.832 C399.296001,51.8640002 399.543999,51.8959998 399.8,51.928 L399.8,57.208 C399.415998,57.1439997 399.024002,57.0880002 398.624,57.04 C398.223998,56.9919998 397.832002,56.968 397.448,56.968 C396.519995,56.968 395.648004,57.1519982 394.832,57.52 C394.015996,57.8880018 393.304003,58.4319964 392.696,59.152 C392.087997,59.8720036 391.608002,60.7599947 391.256,61.816 C390.903998,62.8720053 390.728,64.0879931 390.728,65.464 L390.728,77.272 L385.256,77.272 L385.256,52.456 Z M413.528,77.944 C411.54399,77.944 409.776008,77.6160033 408.224,76.96 C406.671992,76.3039967 405.360005,75.4000058 404.288,74.248 C403.215995,73.0959942 402.400003,71.720008 401.84,70.12 C401.279997,68.519992 401,66.7600096 401,64.84 C401,62.9519906 401.279997,61.208008 401.84,59.608 C402.400003,58.007992 403.215995,56.6320058 404.288,55.48 C405.360005,54.3279942 406.671992,53.4240033 408.224,52.768 C409.776008,52.1119967 411.54399,51.784 413.528,51.784 C415.51201,51.784 417.279992,52.1119967 418.832,52.768 C420.384008,53.4240033 421.695995,54.3279942 422.768,55.48 C423.840005,56.6320058 424.655997,58.007992 425.216,59.608 C425.776003,61.208008 426.056,62.9519906 426.056,64.84 C426.056,66.7600096 425.776003,68.519992 425.216,70.12 C424.655997,71.720008 423.840005,73.0959942 422.768,74.248 C421.695995,75.4000058 420.384008,76.3039967 418.832,76.96 C417.279992,77.6160033 415.51201,77.944 413.528,77.944 Z M413.528,73.624 C414.744006,73.624 415.799996,73.3680026 416.696,72.856 C417.592004,72.3439974 418.327997,71.6720042 418.904,70.84 C419.480003,70.0079958 419.903999,69.0720052 420.176,68.032 C420.448001,66.9919948 420.584,65.9280054 420.584,64.84 C420.584,63.7839947 420.448001,62.7280053 420.176,61.672 C419.903999,60.6159947 419.480003,59.6800041 418.904,58.864 C418.327997,58.0479959 417.592004,57.3840026 416.696,56.872 C415.799996,56.3599974 414.744006,56.104 413.528,56.104 C412.311994,56.104 411.256004,56.3599974 410.36,56.872 C409.463996,57.3840026 408.728003,58.0479959 408.152,58.864 C407.575997,59.6800041 407.152001,60.6159947 406.88,61.672 C406.607999,62.7280053 406.472,63.7839947 406.472,64.84 C406.472,65.9280054 406.607999,66.9919948 406.88,68.032 C407.152001,69.0720052 407.575997,70.0079958 408.152,70.84 C408.728003,71.6720042 409.463996,72.3439974 410.36,72.856 C411.256004,73.3680026 412.311994,73.624 413.528,73.624 Z M431.288,43 L439.736,43 L449.192,69.832 L449.288,69.832 L458.504,43 L466.856,43 L466.856,77.272 L461.144,77.272 L461.144,50.824 L461.048,50.824 L451.544,77.272 L446.6,77.272 L437.096,50.824 L437,50.824 L437,77.272 L431.288,77.272 L431.288,43 Z M474.056,43 L488.264,43 C490.888013,43 493.15999,43.4479955 495.08,44.344 C497.00001,45.2400045 498.567994,46.4639922 499.784,48.016 C501.000006,49.5680078 501.903997,51.3839896 502.496,53.464 C503.088003,55.5440104 503.384,57.7679882 503.384,60.136 C503.384,62.5040118 503.088003,64.7279896 502.496,66.808 C501.903997,68.8880104 501.000006,70.7039922 499.784,72.256 C498.567994,73.8080078 497.00001,75.0319955 495.08,75.928 C493.15999,76.8240045 490.888013,77.272 488.264,77.272 L474.056,77.272 L474.056,43 Z M480.056,72.376 L485.96,72.376 C488.296012,72.376 490.207993,72.0640031 491.696,71.44 C493.184007,70.8159969 494.351996,69.9520055 495.2,68.848 C496.048004,67.7439945 496.623998,66.4480074 496.928,64.96 C497.232002,63.4719926 497.384,61.8640086 497.384,60.136 C497.384,58.4079914 497.232002,56.8000074 496.928,55.312 C496.623998,53.8239926 496.048004,52.5280055 495.2,51.424 C494.351996,50.3199945 493.184007,49.4560031 491.696,48.832 C490.207993,48.2079969 488.296012,47.896 485.96,47.896 L480.056,47.896 L480.056,72.376 Z M508.616,43 L517.064,43 L526.52,69.832 L526.616,69.832 L535.832,43 L544.184,43 L544.184,77.272 L538.472,77.272 L538.472,50.824 L538.376,50.824 L528.872,77.272 L523.928,77.272 L514.424,50.824 L514.328,50.824 L514.328,77.272 L508.616,77.272 L508.616,43 Z M564.728,43 L578.936,43 C581.560013,43 583.83199,43.4479955 585.752,44.344 C587.67201,45.2400045 589.239994,46.4639922 590.456,48.016 C591.672006,49.5680078 592.575997,51.3839896 593.168,53.464 C593.760003,55.5440104 594.056,57.7679882 594.056,60.136 C594.056,62.5040118 593.760003,64.7279896 593.168,66.808 C592.575997,68.8880104 591.672006,70.7039922 590.456,72.256 C589.239994,73.8080078 587.67201,75.0319955 585.752,75.928 C583.83199,76.8240045 581.560013,77.272 578.936,77.272 L564.728,77.272 L564.728,43 Z M570.728,72.376 L576.632,72.376 C578.968012,72.376 580.879993,72.0640031 582.368,71.44 C583.856007,70.8159969 585.023996,69.9520055 585.872,68.848 C586.720004,67.7439945 587.295998,66.4480074 587.6,64.96 C587.904002,63.4719926 588.056,61.8640086 588.056,60.136 C588.056,58.4079914 587.904002,56.8000074 587.6,55.312 C587.295998,53.8239926 586.720004,52.5280055 585.872,51.424 C585.023996,50.3199945 583.856007,49.4560031 582.368,48.832 C580.879993,48.2079969 578.968012,47.896 576.632,47.896 L570.728,47.896 L570.728,72.376 Z M609.992,77.944 C608.00799,77.944 606.240008,77.6160033 604.688,76.96 C603.135992,76.3039967 601.824005,75.4000058 600.752,74.248 C599.679995,73.0959942 598.864003,71.720008 598.304,70.12 C597.743997,68.519992 597.464,66.7600096 597.464,64.84 C597.464,62.9519906 597.743997,61.208008 598.304,59.608 C598.864003,58.007992 599.679995,56.6320058 600.752,55.48 C601.824005,54.3279942 603.135992,53.4240033 604.688,52.768 C606.240008,52.1119967 608.00799,51.784 609.992,51.784 C611.97601,51.784 613.743992,52.1119967 615.296,52.768 C616.848008,53.4240033 618.159995,54.3279942 619.232,55.48 C620.304005,56.6320058 621.119997,58.007992 621.68,59.608 C622.240003,61.208008 622.52,62.9519906 622.52,64.84 C622.52,66.7600096 622.240003,68.519992 621.68,70.12 C621.119997,71.720008 620.304005,73.0959942 619.232,74.248 C618.159995,75.4000058 616.848008,76.3039967 615.296,76.96 C613.743992,77.6160033 611.97601,77.944 609.992,77.944 Z M609.992,73.624 C611.208006,73.624 612.263996,73.3680026 613.16,72.856 C614.056004,72.3439974 614.791997,71.6720042 615.368,70.84 C615.944003,70.0079958 616.367999,69.0720052 616.64,68.032 C616.912001,66.9919948 617.048,65.9280054 617.048,64.84 C617.048,63.7839947 616.912001,62.7280053 616.64,61.672 C616.367999,60.6159947 615.944003,59.6800041 615.368,58.864 C614.791997,58.0479959 614.056004,57.3840026 613.16,56.872 C612.263996,56.3599974 611.208006,56.104 609.992,56.104 C608.775994,56.104 607.720004,56.3599974 606.824,56.872 C605.927996,57.3840026 605.192003,58.0479959 604.616,58.864 C604.039997,59.6800041 603.616001,60.6159947 603.344,61.672 C603.071999,62.7280053 602.936,63.7839947 602.936,64.84 C602.936,65.9280054 603.071999,66.9919948 603.344,68.032 C603.616001,69.0720052 604.039997,70.0079958 604.616,70.84 C605.192003,71.6720042 605.927996,72.3439974 606.824,72.856 C607.720004,73.3680026 608.775994,73.624 609.992,73.624 Z M643.832,60.76 C643.607999,59.2239923 642.992005,58.0640039 641.984,57.28 C640.975995,56.4959961 639.704008,56.104 638.168,56.104 C637.463996,56.104 636.712004,56.2239988 635.912,56.464 C635.111996,56.7040012 634.376003,57.1519967 633.704,57.808 C633.031997,58.4640033 632.472002,59.3759942 632.024,60.544 C631.575998,61.7120058 631.352,63.2399906 631.352,65.128 C631.352,66.1520051 631.471999,67.1759949 631.712,68.2 C631.952001,69.2240051 632.335997,70.135996 632.864,70.936 C633.392003,71.736004 634.071996,72.3839975 634.904,72.88 C635.736004,73.3760025 636.743994,73.624 637.928,73.624 C639.528008,73.624 640.847995,73.128005 641.888,72.136 C642.928005,71.143995 643.575999,69.752009 643.832,67.96 L649.304,67.96 C648.791997,71.1920162 647.56801,73.6639914 645.632,75.376 C643.69599,77.0880086 641.128016,77.944 637.928,77.944 C635.97599,77.944 634.256007,77.6160033 632.768,76.96 C631.279993,76.3039967 630.024005,75.4080057 629,74.272 C627.975995,73.1359943 627.200003,71.7840078 626.672,70.216 C626.143997,68.6479922 625.88,66.9520091 625.88,65.128 C625.88,63.2719907 626.135997,61.5280082 626.648,59.896 C627.160003,58.2639918 627.927995,56.848006 628.952,55.648 C629.976005,54.447994 631.247992,53.5040034 632.768,52.816 C634.288008,52.1279966 636.07199,51.784 638.12,51.784 C639.560007,51.784 640.927994,51.9679982 642.224,52.336 C643.520006,52.7040018 644.671995,53.2559963 645.68,53.992 C646.688005,54.7280037 647.511997,55.6559944 648.152,56.776 C648.792003,57.8960056 649.175999,59.2239923 649.304,60.76 L643.832,60.76 Z M657.896,69.304 C658.056001,70.904008 658.663995,72.0239968 659.72,72.664 C660.776005,73.3040032 662.039993,73.624 663.512,73.624 C664.024003,73.624 664.607997,73.5840004 665.264,73.504 C665.920003,73.4239996 666.535997,73.2720011 667.112,73.048 C667.688003,72.8239989 668.159998,72.4960022 668.528,72.064 C668.896002,71.6319978 669.064,71.0640035 669.032,70.36 C669,69.6559965 668.744002,69.0800022 668.264,68.632 C667.783998,68.1839978 667.168004,67.8240014 666.416,67.552 C665.663996,67.2799986 664.808005,67.048001 663.848,66.856 C662.887995,66.663999 661.912005,66.4560011 660.92,66.232 C659.895995,66.0079989 658.912005,65.7360016 657.968,65.416 C657.023995,65.0959984 656.176004,64.6640027 655.424,64.12 C654.671996,63.5759973 654.072002,62.8800042 653.624,62.032 C653.175998,61.1839958 652.952,60.1360062 652.952,58.888 C652.952,57.5439933 653.279997,56.4160046 653.936,55.504 C654.592003,54.5919954 655.423995,53.8560028 656.432,53.296 C657.440005,52.7359972 658.559994,52.3440011 659.792,52.12 C661.024006,51.8959989 662.199994,51.784 663.32,51.784 C664.600006,51.784 665.823994,51.9199986 666.992,52.192 C668.160006,52.4640014 669.215995,52.903997 670.16,53.512 C671.104005,54.120003 671.887997,54.9119951 672.512,55.888 C673.136003,56.8640049 673.527999,58.0399931 673.688,59.416 L667.976,59.416 C667.719999,58.1039934 667.120005,57.2240022 666.176,56.776 C665.231995,56.3279978 664.152006,56.104 662.936,56.104 C662.551998,56.104 662.096003,56.1359997 661.568,56.2 C661.039997,56.2640003 660.544002,56.3839991 660.08,56.56 C659.615998,56.7360009 659.224002,56.9919983 658.904,57.328 C658.583998,57.6640017 658.424,58.1039973 658.424,58.648 C658.424,59.3200034 658.655998,59.8639979 659.12,60.28 C659.584002,60.6960021 660.191996,61.0399986 660.944,61.312 C661.696004,61.5840014 662.551995,61.815999 663.512,62.008 C664.472005,62.200001 665.463995,62.4079989 666.488,62.632 C667.480005,62.8560011 668.455995,63.1279984 669.416,63.448 C670.376005,63.7680016 671.231996,64.1999973 671.984,64.744 C672.736004,65.2880027 673.343998,65.9759958 673.808,66.808 C674.272002,67.6400042 674.504,68.6639939 674.504,69.88 C674.504,71.3520074 674.168003,72.5999949 673.496,73.624 C672.823997,74.6480051 671.952005,75.4799968 670.88,76.12 C669.807995,76.7600032 668.616007,77.2239986 667.304,77.512 C665.991993,77.8000014 664.696006,77.944 663.416,77.944 C661.847992,77.944 660.400007,77.7680018 659.072,77.416 C657.743993,77.0639982 656.592005,76.5280036 655.616,75.808 C654.639995,75.0879964 653.872003,74.1920054 653.312,73.12 C652.751997,72.0479946 652.456,70.7760074 652.424,69.304 L657.896,69.304 Z" id="MicroMDM-Docs"></path>
        </g>
    </g>
</svg>